<?xml version="1.0" encoding="utf-8"?>
<!-- Generator: Adobe Illustrator 19.0.0, SVG Export Plug-In . SVG Version: 6.00 Build 0)  -->
<svg version="1.1" id="Layer_1" xmlns="http://www.w3.org/2000/svg" xmlns:xlink="http://www.w3.org/1999/xlink" x="0px" y="0px"
	 viewBox="-208 369.9 349.6 287.1" style="enable-background:new -208 369.9 349.6 287.1;" xml:space="preserve">
<style type="text/css">
	.st0{fill:#FFFFFF;}
	.st1{fill:#018CB7;}
</style>
<g>
	<path class="st0" d="M-196.9,391.1c0.1,0.1,0.2,0.1,0.3,0.1l0,0c0.1,0,0.2-0.1,0.3-0.2l5.6-7.6c0.1-0.2,0.1-0.4-0.1-0.6
		c-0.2-0.1-0.4-0.1-0.6,0.1l-5.4,7.2l-2.7-2.6c-0.2-0.2-0.4-0.2-0.6,0c-0.2,0.2-0.2,0.4,0,0.6L-196.9,391.1z"/>
	<path class="st0" d="M-185.5,374.8h-2.5v-1.5c0-0.8-0.7-1.5-1.5-1.5h-1c-0.8,0-1.5,0.7-1.5,1.5v1.5h-7v-1.5c0-0.8-0.7-1.5-1.5-1.5
		h-1c-0.8,0-1.5,0.7-1.5,1.5v1.5h-2.5c-0.8,0-1.5,0.7-1.5,1.5v3.5v1v12.5c0,0.8,0.7,1.5,1.5,1.5h20c0.8,0,1.5-0.7,1.5-1.5v-17
		C-184,375.5-184.7,374.8-185.5,374.8z M-191,376v-0.2v-1v-0.6v-0.9c0-0.3,0.2-0.5,0.5-0.5h1c0.3,0,0.5,0.2,0.5,0.5v0.9v0.6v1v0.2
		v0.3c0,0.3-0.2,0.5-0.5,0.5h-1c-0.3,0-0.5-0.2-0.5-0.5V376z M-202,376v-0.2v-1v-0.6v-0.9c0-0.3,0.2-0.5,0.5-0.5h1
		c0.3,0,0.5,0.2,0.5,0.5v0.9v0.6v1v0.2v0.3c0,0.3-0.2,0.5-0.5,0.5h-1c-0.3,0-0.5-0.2-0.5-0.5V376z M-185,393.3
		c0,0.3-0.2,0.5-0.5,0.5h-20c-0.3,0-0.5-0.2-0.5-0.5v-12.5h21V393.3z M-185,379.8h-21v-3.5c0-0.3,0.2-0.5,0.5-0.5h2.5v0.5
		c0,0.8,0.7,1.5,1.5,1.5h1c0.8,0,1.5-0.7,1.5-1.5v-0.5h7v0.5c0,0.8,0.7,1.5,1.5,1.5h1c0.8,0,1.5-0.7,1.5-1.5v-0.5h2.5
		c0.3,0,0.5,0.2,0.5,0.5V379.8z"/>
</g>
<g>
	<path class="st1" d="M-153,372.7h-5v-1.2c0-0.3-0.3-0.6-0.6-0.6s-0.6,0.3-0.6,0.6v1.2h-12.5v-1.2c0-0.3-0.3-0.6-0.6-0.6
		s-0.6,0.3-0.6,0.6v1.2h-5c-1.4,0-2.5,1.1-2.5,2.5v22.5c0,1.4,1.1,2.5,2.5,2.5h25c1.4,0,2.5-1.1,2.5-2.5l0,0v-22.5
		C-150.5,373.8-151.6,372.7-153,372.7L-153,372.7z M-153,398.9h-25c-0.7,0-1.2-0.6-1.2-1.2v-22.5c0-0.7,0.6-1.2,1.2-1.2h5v1.2
		c0,0.3,0.3,0.6,0.6,0.6s0.6-0.3,0.6-0.6v-1.3h12.5v1.2c0,0.3,0.3,0.6,0.6,0.6s0.6-0.3,0.6-0.6v-1.2h5c0.7,0,1.2,0.6,1.2,1.2v22.5
		C-151.8,398.4-152.3,398.9-153,398.9L-153,398.9z"/>
	<path class="st1" d="M-155.5,377.7h-20c-0.3,0-0.6,0.3-0.6,0.6c0,0.3,0.3,0.6,0.6,0.6h20c0.3,0,0.6-0.3,0.6-0.6
		C-154.9,378-155.2,377.7-155.5,377.7z"/>
	<path class="st1" d="M-171.8,381.4h-3.7c-0.3,0-0.6,0.3-0.6,0.6c0,0.3,0.3,0.6,0.6,0.6h3.7c0.3,0,0.6-0.3,0.6-0.6
		C-171.1,381.7-171.4,381.4-171.8,381.4z"/>
	<path class="st1" d="M-163,381.4h-5c-0.3,0-0.6,0.3-0.6,0.6c0,0.3,0.3,0.6,0.6,0.6h5c0.3,0,0.6-0.3,0.6-0.6S-162.7,381.4-163,381.4
		z"/>
	<path class="st1" d="M-155.5,381.4h-3.7c-0.3,0-0.6,0.3-0.6,0.6c0,0.3,0.3,0.6,0.6,0.6h3.7c0.3,0,0.6-0.3,0.6-0.6
		S-155.2,381.4-155.5,381.4z"/>
	<path class="st1" d="M-171.8,385.2h-3.7c-0.3,0-0.6,0.3-0.6,0.6c0,0.3,0.3,0.6,0.6,0.6h3.7c0.3,0,0.6-0.3,0.6-0.6
		C-171.1,385.5-171.4,385.2-171.8,385.2z"/>
	<path class="st1" d="M-163,385.2h-5c-0.3,0-0.6,0.3-0.6,0.6c0,0.3,0.3,0.6,0.6,0.6h5c0.3,0,0.6-0.3,0.6-0.6
		C-162.4,385.5-162.7,385.2-163,385.2z"/>
	<path class="st1" d="M-155.5,385.2h-3.7c-0.3,0-0.6,0.3-0.6,0.6c0,0.3,0.3,0.6,0.6,0.6h3.7c0.3,0,0.6-0.3,0.6-0.6
		C-154.9,385.5-155.2,385.2-155.5,385.2z"/>
	<path class="st1" d="M-171.8,388.9h-3.7c-0.3,0-0.6,0.3-0.6,0.6c0,0.3,0.3,0.6,0.6,0.6h3.7c0.3,0,0.6-0.3,0.6-0.6
		C-171.1,389.2-171.4,388.9-171.8,388.9z"/>
	<path class="st1" d="M-163,388.9h-5c-0.3,0-0.6,0.3-0.6,0.6c0,0.3,0.3,0.6,0.6,0.6h5c0.3,0,0.6-0.3,0.6-0.6S-162.7,388.9-163,388.9
		z"/>
	<path class="st1" d="M-155.5,388.9h-3.7c-0.3,0-0.6,0.3-0.6,0.6c0,0.3,0.3,0.6,0.6,0.6h3.7c0.3,0,0.6-0.3,0.6-0.6
		S-155.2,388.9-155.5,388.9z"/>
	<path class="st1" d="M-171.8,392.7h-3.7c-0.3,0-0.6,0.3-0.6,0.6c0,0.3,0.3,0.6,0.6,0.6h3.7c0.3,0,0.6-0.3,0.6-0.6
		C-171.1,393-171.4,392.7-171.8,392.7z"/>
	<path class="st1" d="M-163,392.7h-5c-0.3,0-0.6,0.3-0.6,0.6c0,0.3,0.3,0.6,0.6,0.6h5c0.3,0,0.6-0.3,0.6-0.6
		C-162.4,393-162.7,392.7-163,392.7z"/>
	<path class="st1" d="M-155.5,392.7h-3.7c-0.3,0-0.6,0.3-0.6,0.6c0,0.3,0.3,0.6,0.6,0.6h3.7c0.3,0,0.6-0.3,0.6-0.6
		C-154.9,393-155.2,392.7-155.5,392.7z"/>
</g>
<g>
	<g>
		<path class="st1" d="M-126.9,400.2H-147c-0.3,0-0.5-0.2-0.5-0.5v-18.8c0-0.1,0-0.2,0.1-0.3l5.4-6.2c0.1-0.1,0.2-0.2,0.4-0.2h14.8
			c0.3,0,0.5,0.2,0.5,0.5v25C-126.4,400-126.6,400.2-126.9,400.2z M-146.6,399.3h19.2v-24h-14.1l-5.1,5.9L-146.6,399.3L-146.6,399.3
			z"/>
		<path class="st1" d="M-123,397.3h-3.4c-0.3,0-0.5-0.2-0.5-0.5s0.2-0.5,0.5-0.5h2.9v-24h-14.3l-2.6,2.8c-0.2,0.2-0.5,0.2-0.7,0
			s-0.2-0.5,0-0.7l2.8-2.9c0.1-0.1,0.2-0.1,0.3-0.1h15c0.3,0,0.5,0.2,0.5,0.5v25C-122.5,397.1-122.7,397.3-123,397.3z"/>
		<path class="st1" d="M-141.3,382h-5.3c-0.3,0-0.5-0.2-0.5-0.5s0.2-0.5,0.5-0.5h4.8v-5.8c0-0.3,0.2-0.5,0.5-0.5s0.5,0.2,0.5,0.5
			v6.2C-140.8,381.7-141,382-141.3,382z"/>
	</g>
	<path class="st1" d="M-132.6,387.7h-9.7c-0.5,0-1-0.2-1-0.5s0.4-0.5,1-0.5h9.7c0.5,0,1,0.2,1,0.5S-132.1,387.7-132.6,387.7z"/>
	<path class="st1" d="M-132.6,391.3h-9.7c-0.5,0-1-0.2-1-0.5s0.4-0.5,1-0.5h9.7c0.5,0,1,0.2,1,0.5
		C-131.7,391.1-132.1,391.3-132.6,391.3z"/>
	<path class="st1" d="M-132.6,394.9h-9.7c-0.5,0-1-0.2-1-0.5s0.4-0.5,1-0.5h9.7c0.5,0,1,0.2,1,0.5
		C-131.7,394.7-132.1,394.9-132.6,394.9z"/>
</g>
<path class="st1" d="M-118.7,376.7c-0.3,0.3-0.2,0.8,0.1,1l8.9,7.4l-8.9,7.4c-0.3,0.3-0.3,0.7-0.1,1c0.3,0.3,0.7,0.3,1,0.1l9.5-8
	c0.2-0.1,0.3-0.3,0.3-0.6c0-0.2-0.1-0.4-0.3-0.6l-9.5-8C-117.9,376.4-118.4,376.4-118.7,376.7L-118.7,376.7z"/>
<path class="st0" d="M-88.9,379.8c-0.3-0.3-0.8-0.2-1,0.1l-7.4,8.9l-7.4-8.9c-0.3-0.3-0.7-0.3-1-0.1c-0.3,0.3-0.3,0.7-0.1,1l8,9.5
	c0.1,0.2,0.3,0.3,0.6,0.3s0.4-0.1,0.6-0.3l8-9.5C-88.5,380.6-88.6,380.1-88.9,379.8L-88.9,379.8z"/>
<path class="st1" d="M-190.7,426.8c0.4-0.4,0.3-1.1-0.1-1.4l-12.6-10.5l12.6-10.5c0.4-0.4,0.4-1,0.1-1.4c-0.4-0.4-1-0.4-1.4-0.1
	l-13.4,11.3c-0.3,0.1-0.4,0.4-0.4,0.8c0,0.3,0.1,0.6,0.4,0.8l13.4,11.3C-191.7,427.3-191.2,427.2-190.7,426.8L-190.7,426.8z"/>
<path class="st1" d="M-118.7,376.7c-0.3,0.3-0.2,0.8,0.1,1l8.9,7.4l-8.9,7.4c-0.3,0.3-0.3,0.7-0.1,1c0.3,0.3,0.7,0.3,1,0.1l9.5-8
	c0.2-0.1,0.3-0.3,0.3-0.6c0-0.2-0.1-0.4-0.3-0.6l-9.5-8C-117.9,376.4-118.4,376.4-118.7,376.7L-118.7,376.7z"/>
<path class="st0" d="M-85.1,390.5c0.3,0.3,0.8,0.2,1-0.1l7.4-8.9l7.4,8.9c0.3,0.3,0.7,0.3,1,0.1c0.3-0.3,0.3-0.7,0.1-1l-8-9.5
	c-0.1-0.2-0.3-0.3-0.6-0.3c-0.2,0-0.4,0.1-0.6,0.3l-8,9.5C-85.4,389.8-85.4,390.2-85.1,390.5L-85.1,390.5z"/>
</svg>
